<svg width="24" height="24" viewBox="0 0 24 24" fill="none" xmlns="http://www.w3.org/2000/svg">
<g id="Utility Icons / Q / quote">
<g id="Group">
<path id="Path" d="M9.17642 9.3023H14.6176C14.8516 9.3023 15.076 9.20934 15.2415 9.04387C15.407 8.87839 15.4999 8.65396 15.4999 8.41995C15.4999 8.18594 15.407 7.96151 15.2415 7.79603C15.076 7.63056 14.8516 7.5376 14.6176 7.5376H9.17642C8.94241 7.5376 8.71798 7.63056 8.5525 7.79603C8.38703 7.96151 8.29407 8.18594 8.29407 8.41995C8.29407 8.65396 8.38703 8.87839 8.5525 9.04387C8.71798 9.20934 8.94241 9.3023 9.17642 9.3023Z" fill="black"/>
<path id="Path_2" d="M18.7352 11.6553H9.17642C8.94241 11.6553 8.71798 11.7482 8.5525 11.9137C8.38703 12.0792 8.29407 12.3036 8.29407 12.5376C8.29407 12.7716 8.38703 12.9961 8.5525 13.1615C8.71798 13.327 8.94241 13.42 9.17642 13.42H18.7352C18.9693 13.42 19.1937 13.327 19.3592 13.1615C19.5246 12.9961 19.6176 12.7716 19.6176 12.5376C19.6176 12.3036 19.5246 12.0792 19.3592 11.9137C19.1937 11.7482 18.9693 11.6553 18.7352 11.6553Z" fill="black"/>
<path id="Compound Path" d="M22.9706 0.949372C22.6623 0.80945 22.3199 0.762742 21.9854 0.815002C21.651 0.867261 21.3391 1.01621 21.0882 1.24349L20.0882 2.12584L18.2059 0.449372C17.8823 0.159987 17.4635 0 17.0294 0C16.5953 0 16.1765 0.159987 15.8529 0.449372L13.9706 2.12584L12.0882 0.449372C11.7647 0.159987 11.3458 0 10.9118 0C10.4777 0 10.0588 0.159987 9.73529 0.449372L7.85294 2.12584L6.85294 1.24349C6.59851 1.01591 6.28353 0.86701 5.94617 0.814835C5.60882 0.76266 5.26358 0.809449 4.95228 0.949533C4.64098 1.08962 4.377 1.31698 4.19231 1.60407C4.00763 1.89116 3.91018 2.22566 3.91176 2.56702V16.2729H0.882354C0.648339 16.2729 0.423909 16.3659 0.258436 16.5313C0.0929629 16.6968 7.87287e-07 16.9212 7.87287e-07 17.1553V19.3023C-0.000665977 20.3928 0.42221 21.4408 1.17944 22.2255C1.93666 23.0102 2.96904 23.4701 4.05882 23.5082H19.7941C20.9096 23.5082 21.9794 23.0651 22.7681 22.2763C23.5569 21.4876 24 20.4178 24 19.3023V2.53761C24.0006 2.20164 23.9036 1.87272 23.7209 1.59079C23.5382 1.30886 23.2775 1.08604 22.9706 0.949372ZM4.20588 21.7729C3.55844 21.7729 2.93752 21.5157 2.47971 21.0579C2.0219 20.6001 1.76471 19.9792 1.76471 19.3317V18.0376H15.5882V19.3023C15.5901 20.1792 15.8679 21.0333 16.3824 21.7435L4.20588 21.7729ZM22.2353 19.3317C22.2353 19.9831 21.9765 20.6077 21.516 21.0683C21.0554 21.5289 20.4307 21.7876 19.7794 21.7876C19.1281 21.7876 18.5034 21.5289 18.0428 21.0683C17.5823 20.6077 17.3235 19.9831 17.3235 19.3317V17.1553C17.3235 16.9212 17.2306 16.6968 17.0651 16.5313C16.8996 16.3659 16.6752 16.2729 16.4412 16.2729H5.67647V2.53761L6.67647 3.41996C7.00001 3.70934 7.41886 3.86933 7.85294 3.86933C8.28702 3.86933 8.70587 3.70934 9.02941 3.41996L10.9118 1.74349L12.7941 3.41996C13.1177 3.70934 13.5365 3.86933 13.9706 3.86933C14.4047 3.86933 14.8235 3.70934 15.1471 3.41996L17.0294 1.74349L18.9118 3.41996C19.2353 3.70934 19.6542 3.86933 20.0882 3.86933C20.5223 3.86933 20.9412 3.70934 21.2647 3.41996L22.2647 2.53761L22.2353 19.3317Z" fill="black"/>
</g>
</g>
</svg>
